<svg style="width:16px;height:16px;"
    xmlns="http://www.w3.org/2000/svg"
    xmlns:xlink="http://www.w3.org/1999/xlink" viewBox="0 0 20 20" width="20" height="20">
    <path d="M9.571416666666666 7.6439C9.721125 7.33675 10.091416666666667 7.209108333333334 10.398583333333335 7.358808333333333C10.896041666666667 7.540316666666667 11.366333333333333 7.832000000000001 11.767333333333333 8.232975C13.475833333333334 9.941541666666668 13.475833333333334 12.711625 11.767333333333333 14.420166666666669L9.704916666666666 16.482583333333334C7.996383333333334 18.191125000000003 5.226283333333334 18.191125000000003 3.5177416666666668 16.482583333333334C1.8091916666666668 14.774041666666669 1.8091916666666668 12.003916666666667 3.5177416666666668 10.295375L5.008791666666667 8.804333333333334C5.252875 8.56025 5.6486 8.56025 5.892683333333334 8.804333333333334C6.136758333333334 9.048416666666668 6.136758333333334 9.444125000000001 5.892683333333334 9.688208333333334L4.401625 11.179250000000001C3.1812333333333336 12.399666666666667 3.1812333333333336 14.378291666666668 4.401625 15.598708333333335C5.622000000000001 16.819083333333335 7.60065 16.819083333333335 8.821041666666668 15.598708333333335L10.883416666666667 13.536291666666667C12.103833333333334 12.315916666666666 12.103833333333334 10.337250000000001 10.883416666666667 9.116875C10.582458333333333 8.815875 10.229416666666667 8.600908333333333 9.856458333333334 8.471066666666667C9.549333333333333 8.321375 9.421708333333335 7.9510499999999995 9.571416666666666 7.6439z" fill="currentColor"></path>
    <path d="M15.597541666666668 4.402641666666667C14.377166666666668 3.1822500000000002 12.398541666666667 3.1822500000000002 11.178125000000001 4.402641666666667L9.11575 6.465033333333333C7.895358333333333 7.685425 7.895358333333333 9.664041666666668 9.11575 10.884458333333333C9.397666666666668 11.166375 9.725916666666667 11.371583333333334 10.073083333333333 11.500958333333333C10.376583333333334 11.658083333333334 10.495291666666667 12.031416666666667 10.338208333333332 12.334875C10.181083333333333 12.638375 9.80775 12.757083333333334 9.504291666666667 12.6C9.042416666666666 12.420333333333334 8.606383333333333 12.142833333333334 8.231858333333333 11.768333333333334C6.523316666666667 10.059791666666667 6.523316666666667 7.289691666666666 8.231858333333333 5.58115L10.29425 3.5187583333333334C12.002791666666667 1.8102083333333334 14.772875 1.8102083333333334 16.481458333333336 3.5187583333333334C18.19 5.2273000000000005 18.19 7.997400000000001 16.481458333333336 9.705916666666667L15.054916666666667 11.132458333333334C14.810875000000001 11.3765 14.415166666666668 11.3765 14.171041666666667 11.132458333333334C13.927 10.888333333333334 13.927 10.492625 14.171041666666667 10.248541666666666L15.597541666666668 8.822041666666667C16.81791666666667 7.601666666666667 16.81791666666667 5.623025 15.597541666666668 4.402641666666667z" fill="currentColor"></path>
</svg>